<mxfile host="app.diagrams.net" modified="2023-09-03T10:09:01.753Z" agent="Mozilla/5.0 (Macintosh; Intel Mac OS X 10_15_7) AppleWebKit/537.36 (KHTML, like Gecko) Chrome/116.0.0.0 Safari/537.36" etag="9_Vr_QUcu_IaJ_lv9atK" version="21.7.1" type="device">
  <diagram name="第 1 页" id="NusGfvWjh0QUVB8hl25e">
    <mxGraphModel dx="636" dy="390" grid="1" gridSize="10" guides="1" tooltips="1" connect="1" arrows="1" fold="1" page="1" pageScale="1" pageWidth="827" pageHeight="1169" math="0" shadow="0">
      <root>
        <mxCell id="0" />
        <mxCell id="1" parent="0" />
        <mxCell id="uON9LTf4XqkxghpkcYky-1" value="Article" style="rounded=1;whiteSpace=wrap;html=1;fillColor=#dae8fc;strokeColor=#6c8ebf;" vertex="1" parent="1">
          <mxGeometry x="180" y="270" width="100" height="40" as="geometry" />
        </mxCell>
        <mxCell id="uON9LTf4XqkxghpkcYky-2" value="Paragraph #1" style="rounded=1;whiteSpace=wrap;html=1;fillColor=#fff2cc;strokeColor=#d6b656;" vertex="1" parent="1">
          <mxGeometry x="380" y="190" width="136" height="20" as="geometry" />
        </mxCell>
        <mxCell id="uON9LTf4XqkxghpkcYky-3" value="Paragraph #2" style="rounded=1;whiteSpace=wrap;html=1;fillColor=#fff2cc;strokeColor=#d6b656;" vertex="1" parent="1">
          <mxGeometry x="380" y="230" width="136" height="20" as="geometry" />
        </mxCell>
        <mxCell id="uON9LTf4XqkxghpkcYky-4" value="Paragraph #3" style="rounded=1;whiteSpace=wrap;html=1;fillColor=#fff2cc;strokeColor=#d6b656;" vertex="1" parent="1">
          <mxGeometry x="380" y="270" width="136" height="20" as="geometry" />
        </mxCell>
        <mxCell id="uON9LTf4XqkxghpkcYky-7" value="&lt;b style=&quot;font-size: 15px;&quot;&gt;.&lt;br&gt;.&lt;br&gt;.&lt;br&gt;.&lt;/b&gt;" style="text;html=1;align=center;verticalAlign=middle;resizable=0;points=[];autosize=1;" vertex="1" parent="1">
          <mxGeometry x="430" y="280" width="30" height="90" as="geometry" />
        </mxCell>
        <mxCell id="uON9LTf4XqkxghpkcYky-9" value="" style="endArrow=classic;html=1;rounded=0;" edge="1" parent="1">
          <mxGeometry width="50" height="50" relative="1" as="geometry">
            <mxPoint x="290" y="290" as="sourcePoint" />
            <mxPoint x="370" y="290" as="targetPoint" />
          </mxGeometry>
        </mxCell>
        <mxCell id="uON9LTf4XqkxghpkcYky-6" value="Paragraph #N" style="rounded=1;whiteSpace=wrap;html=1;fillColor=#fff2cc;strokeColor=#d6b656;" vertex="1" parent="1">
          <mxGeometry x="380" y="350" width="136" height="20" as="geometry" />
        </mxCell>
      </root>
    </mxGraphModel>
  </diagram>
</mxfile>
